<svg id="logo" data-name="Vyne logo white" xmlns="http://www.w3.org/2000/svg" viewBox="0 0 207.531 73.815"><defs></defs><defs><clipPath id="a"><path data-name="Path 1036" d="M60.181 11.022a11.371 11.371 0 016.047 15.538l7.049-12.32a18.9 18.9 0 00-9.395-9.688z" transform="translate(-60.181 -4.552)" fill="none"></path></clipPath><clipPath id="b"><path data-name="Rectangle 114" transform="rotate(-60 19.207 11.089)" fill="none" d="M0 0h25.608v22.346H0z"></path></clipPath></defs><g data-name="Group 278"><path data-name="Path 953" d="M104.369 31.555l-6.03 17.384-6.541-17.384h-9.387l11.605 27.962h8.7l10.753-27.962z" fill="#fff"></path></g><g data-name="Group 279"><path data-name="Path 954" d="M147.212 31.555h-9.158l-6.259 14.965-6.884-14.965h-9.67l11.889 24.191-6.428 14.515h9.1z" fill="#fff"></path></g><g data-name="Group 280"><path data-name="Path 955" d="M159.447 39.962a4.407 4.407 0 013.385-1.378 4.347 4.347 0 013.442 1.322 5.122 5.122 0 011.167 3.517v16.09h8.647V41.962a12.056 12.056 0 00-2.617-8.016q-2.617-3.124-7.679-3.123a10.811 10.811 0 00-4.581 1.04 7.215 7.215 0 00-3.327 2.9v-3.208h-8.362v27.962h8.646V43.482a4.969 4.969 0 011.28-3.516" fill="#fff"></path></g><g data-name="Group 281"><path data-name="Path 956" d="M207.531 45.058q0-6.753-3.783-10.55t-10.381-3.8a13.692 13.692 0 00-9.928 4.106 14.253 14.253 0 00-4.181 10.634q0 6.807 4.295 10.859a14.662 14.662 0 0010.44 4.049 14.049 14.049 0 008.533-2.5 11.618 11.618 0 004.493-6.384l-7.225-2.028q-1.309 3.657-5.688 3.656a6.754 6.754 0 01-4.437-1.546 5.15 5.15 0 01-1.992-3.855h19.683a11.61 11.61 0 00.171-2.643m-19.683-2.869a5.219 5.219 0 011.65-3.263 5.42 5.42 0 013.983-1.463 5.65 5.65 0 014.181 1.406 5.009 5.009 0 011.508 3.32z" fill="#fff"></path></g><g data-name="Group 282"><path data-name="Path 957" d="M36.171 73.815a12.812 12.812 0 01-11.092-6.433L2.548 28.26l6.421-3.7 22.535 39.13a5.37 5.37 0 009.4-.113l.053-.095L73.337 7.41H53.543a11.471 11.471 0 00-9.849 5.639l-8.715 15.234-6.432-3.683 8.746-15.284A18.91 18.91 0 0153.543 0h21.9a6.2 6.2 0 015.532 8.984l-.1.184-33.48 57.979a12.769 12.769 0 01-11.224 6.668" fill="#fff"></path></g><g data-name="Group 283"><path data-name="Path 958" d="M18.784 37.567a18.784 18.784 0 1118.783-18.783 18.8 18.8 0 01-18.783 18.783m0-30.157a11.374 11.374 0 1011.373 11.374A11.386 11.386 0 0018.784 7.41" fill="#fff"></path></g><g data-name="Group 288"><g data-name="Group 287" clip-path="url(#a)" transform="translate(22.969 1.737)"><g data-name="Group 286"><g data-name="Group 285"><g data-name="Group 284" clip-path="url(#b)" transform="translate(-9.53 -5.671)"><path data-name="Path 959" d="M16.505 0L0 28.588V0z" fill="#fff"></path><path data-name="Path 960" d="M17.389 0L0 30.121v-1.533L16.505 0z" fill="#fff"></path><path data-name="Path 961" d="M18.275 0L0 31.654v-1.533L17.389 0z" fill="#fbfbfb"></path><path data-name="Path 962" d="M19.16 0L0 33.187v-1.533L18.275 0z" fill="#f9f9f9"></path><path data-name="Path 963" d="M20.045 0L.789 33.351h-.79v-.164L19.159 0z" fill="#f8f8f8"></path><path data-name="Path 964" d="M20.93 0L1.675 33.351H.79L20.045 0z" fill="#f7f8f8"></path><path data-name="Path 965" d="M21.816 0L2.561 33.351h-.886L20.931 0z" fill="#f7f7f8"></path><path data-name="Path 966" d="M22.701 0L3.441 33.351h-.88L21.816 0z" fill="#f7f7f8"></path><path data-name="Path 967" d="M23.586 0L4.331 33.351h-.885L22.701 0z" fill="#f7f7f8"></path><path data-name="Path 968" d="M23.673 0L4.422 33.351H4.33L23.586 0z" fill="#f7f7f8"></path><path data-name="Path 969" d="M23.769 0L4.514 33.351h-.089L23.678 0z" fill="#f6f7f7"></path><path data-name="Path 970" d="M23.86 0L4.605 33.351h-.092L23.768 0z" fill="#f6f6f6"></path><path data-name="Path 971" d="M23.952 0L4.697 33.351h-.092L23.86 0z" fill="#f5f5f5"></path><path data-name="Path 972" d="M24.043 0L4.788 33.351h-.092L23.952 0z" fill="#f4f4f4"></path><path data-name="Path 973" d="M24.132 0L4.88 33.351h-.092L24.044 0z" fill="#f3f3f3"></path><path data-name="Path 974" d="M24.226 0L4.971 33.351h-.088L24.134 0z" fill="#f2f2f2"></path><path data-name="Path 975" d="M24.318 0L5.063 33.351h-.092L24.226 0z" fill="#f1f1f1"></path><path data-name="Path 976" d="M24.41 0L5.155 33.351h-.092L24.318 0z" fill="#f0f0f0"></path><path data-name="Path 977" d="M24.5 0L5.245 33.351h-.092L24.409 0z" fill="#efefef"></path><path data-name="Path 978" d="M24.59 0L5.337 33.351h-.092L24.501 0z" fill="#eee"></path><path data-name="Path 979" d="M24.684 0L5.429 33.351h-.087L24.592 0z" fill="#ededed"></path><path data-name="Path 980" d="M24.776 0L5.521 33.351h-.092L24.684 0z" fill="#ececec"></path><path data-name="Path 981" d="M24.867 0L5.611 33.351h-.092L24.775 0z" fill="#ebeaeb"></path><path data-name="Path 982" d="M24.958 0L5.703 33.351h-.092L24.867 0z" fill="#eae9ea"></path><path data-name="Path 983" d="M25.049 0L5.795 33.351h-.092L24.959 0z" fill="#e9e8e9"></path><path data-name="Path 984" d="M25.142 0L5.887 33.351h-.092L25.05 0z" fill="#e7e7e8"></path><path data-name="Path 985" d="M25.233 0L5.978 33.351h-.092L25.141 0z" fill="#e6e6e7"></path><path data-name="Path 986" d="M25.324 0L6.069 33.351h-.092L25.233 0z" fill="#e5e5e5"></path><path data-name="Path 987" d="M25.416 0L6.161 33.351h-.092L25.325 0z" fill="#e4e4e4"></path><path data-name="Path 988" d="M25.508 0L6.253 33.351h-.092L25.417 0z" fill="#e3e3e3"></path><path data-name="Path 989" d="M25.599 0L6.344 33.351h-.092L25.507 0z" fill="#e2e1e2"></path><path data-name="Path 990" d="M25.691 0L6.436 33.351h-.092L25.599 0z" fill="#e1e0e1"></path><path data-name="Path 991" d="M25.782 0L6.527 33.351h-.092L25.691 0z" fill="#e0dfe0"></path><path data-name="Path 992" d="M25.873 0L6.614 33.351h-.092L25.782 0z" fill="#dfdede"></path><path data-name="Path 993" d="M25.966 0L6.71 33.351h-.092L25.873 0z" fill="#ddd"></path><path data-name="Path 994" d="M26.057 0L6.802 33.351H6.71L25.965 0z" fill="#dcdcdc"></path><path data-name="Path 995" d="M26.149 0L6.893 33.351h-.092L26.057 0z" fill="#dbdadb"></path><path data-name="Path 996" d="M26.239 0L6.984 33.351h-.092L26.148 0z" fill="#dad9da"></path><path data-name="Path 997" d="M26.331 0L7.073 33.351h-.092L26.24 0z" fill="#d9d8d8"></path><path data-name="Path 998" d="M26.425 0L7.168 33.351h-.092L26.331 0z" fill="#d8d7d7"></path><path data-name="Path 999" d="M26.515 0L7.26 33.351h-.092L26.423 0z" fill="#d7d6d6"></path><path data-name="Path 1000" d="M26.605 0L7.35 33.351h-.092L26.514 0z" fill="#d6d4d5"></path><path data-name="Path 1001" d="M26.697 0L7.442 33.351H7.35L26.606 0z" fill="#d4d3d4"></path><path data-name="Path 1002" d="M26.789 0L7.532 33.351h-.09L26.698 0z" fill="#d3d2d3"></path><path data-name="Path 1003" d="M26.883 0L7.625 33.351h-.092L26.788 0z" fill="#d2d1d1"></path><path data-name="Path 1004" d="M26.972 0L7.717 33.351h-.092L26.88 0z" fill="#d1d0d0"></path><path data-name="Path 1005" d="M27.063 0L7.808 33.351h-.091L26.972 0z" fill="#d0cfcf"></path><path data-name="Path 1006" d="M27.155 0L7.9 33.351h-.091L27.064 0z" fill="#cfcece"></path><path data-name="Path 1007" d="M27.246 0L7.99 33.351h-.092L27.155 0z" fill="#cdcccd"></path><path data-name="Path 1008" d="M27.342 0L8.083 33.351h-.092L27.242 0z" fill="#cccbcb"></path><path data-name="Path 1009" d="M27.43 0L8.175 33.351h-.092L27.338 0z" fill="#cbcaca"></path><path data-name="Path 1010" d="M27.521 0L8.266 33.351h-.092L27.43 0z" fill="#cac9c9"></path><path data-name="Path 1011" d="M27.612 0L8.357 33.351h-.092L27.521 0z" fill="#c9c8c8"></path><path data-name="Path 1012" d="M27.704 0L8.449 33.351h-.092L27.612 0z" fill="#c8c6c7"></path><path data-name="Path 1013" d="M27.796 0L8.541 33.351h-.092L27.701 0z" fill="#c6c5c6"></path><path data-name="Path 1014" d="M27.888 0L8.632 33.351H8.54L27.796 0z" fill="#c5c4c4"></path><path data-name="Path 1015" d="M27.978 0L8.723 33.351h-.092L27.887 0z" fill="#c4c3c3"></path><path data-name="Path 1016" d="M28.07 0L8.815 33.351h-.092L27.979 0z" fill="#c3c2c2"></path><path data-name="Path 1017" d="M28.162 0L8.908 33.351h-.092L28.07 0z" fill="#c2c1c1"></path><path data-name="Path 1018" d="M28.253 0L8.998 33.351h-.092L28.159 0z" fill="#c1c0c0"></path><path data-name="Path 1019" d="M28.344 0L9.089 33.351h-.092L28.253 0z" fill="#c0bebf"></path><path data-name="Path 1020" d="M28.436 0L9.181 33.351h-.092L28.345 0z" fill="#bfbdbe"></path><path data-name="Path 1021" d="M28.528 0L9.273 33.351h-.092L28.437 0z" fill="#bebcbc"></path><path data-name="Path 1022" d="M28.619 0L9.366 33.351h-.092L28.527 0z" fill="#bcbbbb"></path><path data-name="Path 1023" d="M28.711 0L9.456 33.351h-.092L28.618 0z" fill="#bbbaba"></path><path data-name="Path 1024" d="M28.802 0L9.547 33.351h-.092L28.711 0z" fill="#bab9b9"></path><path data-name="Path 1025" d="M28.894 0L9.639 33.351h-.092L28.803 0z" fill="#b9b8b8"></path><path data-name="Path 1026" d="M28.985 0L9.73 33.351h-.092L28.893 0z" fill="#b8b6b7"></path><path data-name="Path 1027" d="M29.077 0L9.825 33.351h-.092L28.985 0z" fill="#b7b5b5"></path><path data-name="Path 1028" d="M29.169 0L9.913 33.351h-.092L29.077 0z" fill="#b5b4b4"></path><path data-name="Path 1029" d="M29.259 0L10.004 33.351h-.092L29.168 0z" fill="#b4b3b3"></path><path data-name="Path 1030" d="M29.351 0L10.096 33.351h-.092L29.26 0z" fill="#b3b2b2"></path><path data-name="Path 1031" d="M29.443 0L10.188 33.351h-.092L29.351 0z" fill="#b2b1b1"></path><path data-name="Path 1032" d="M29.535 0L10.284 33.351h-.1L29.443 0z" fill="#b1afaf"></path><path data-name="Path 1033" d="M29.626 0L10.37 33.351h-.092L29.535 0z" fill="#afaeae"></path><path data-name="Path 1034" d="M31.56 0L12.305 33.351h-1.934L29.626 0z" fill="#afaeae"></path><path data-name="Path 1035" d="M12.305 33.351L31.56 0h.6v33.351z" fill="#afaeae"></path></g></g></g></g></g></svg>